<svg width="76" height="58" viewBox="0 0 76 58" fill="none" xmlns="http://www.w3.org/2000/svg">
<path d="M0.852364 0.983812C-0.0236479 2.27282 -0.18938 4.20633 0.426196 5.63102C1.1128 7.15748 4.54582 10.9906 6.48726 12.3474C8.83118 14.0096 11.033 14.688 13.377 14.4845C15.7919 14.2809 17.1651 13.5008 20.2904 10.6514C24.9545 6.41121 25.9253 6.41121 30.5658 10.6514C33.5016 13.3651 35.1115 14.2809 37.3134 14.5184C40.0598 14.7898 42.2144 13.7721 45.2922 10.7871C47.1863 8.95531 49.4592 7.46277 50.3826 7.46277C52.7265 7.46277 54.005 4.27417 52.7975 1.45871C52.2293 0.101859 51.6137 -0.135589 49.4119 0.0679388C47.3757 0.271466 45.9788 1.1195 42.7589 4.03672C39.9888 6.58082 38.805 7.22532 37.5739 6.95395C36.4848 6.7165 34.7327 5.49534 32.8387 3.66359C32.081 2.91732 30.7552 1.83184 29.8792 1.25518C28.5059 0.339308 27.9851 0.169703 25.9253 0.0679388C22.8711 -0.101667 21.4268 0.542836 17.8281 3.76535C16.3838 5.05436 14.7265 6.34337 14.1583 6.64866C11.9564 7.76806 8.94956 6.20768 5.58757 2.20498C3.88289 0.169703 3.64613 9.63211e-05 2.62807 9.63211e-05C1.7047 9.63211e-05 1.39691 0.169703 0.852364 0.983812Z" fill="white"/>
<path d="M1.27831 14.8915C-0.426367 16.384 -0.379015 19.1316 1.39669 21.5401C6.08454 27.9851 11.2696 30.3935 16.0048 28.3582C16.6677 28.0529 18.3961 26.7639 19.8403 25.441C22.9419 22.6595 23.6521 22.2185 25.3331 21.8793C27.1325 21.5401 27.9375 20.3528 27.9375 18.0801C27.9375 16.6554 27.8191 16.2483 27.2035 15.4003C26.5406 14.4844 26.3512 14.4166 24.7886 14.4505C22.5157 14.5184 20.882 15.4342 17.5437 18.5211C16.0758 19.9118 14.4895 21.0991 14.0397 21.2348C11.5063 21.9132 8.54684 20.3189 5.70572 16.7572C3.5512 14.0774 2.65152 13.7042 1.27831 14.8915Z" fill="white"/>
<path d="M48.5832 14.5862C47.139 15.0271 45.3633 16.2483 42.4274 18.8263C40.486 20.4885 39.4916 21.133 38.2368 21.5061C36.1533 22.1167 35.514 23.0325 35.514 25.407C35.514 26.7639 35.6324 27.1709 36.248 28.019C36.8872 28.9009 37.124 29.0027 38.4262 29.0027C40.4386 28.9688 42.3091 28.019 44.724 25.8141C48.1097 22.7273 49.1514 22.0488 50.5957 22.0488C52.1819 22.0488 52.8922 22.4559 56.0411 25.3053C58.8823 27.8494 60.4922 28.7992 62.5994 29.0366C65.772 29.4437 69.8916 27.2727 73.2536 23.4057C75.3844 20.9294 76 19.7083 76 17.8765C76 15.7056 74.319 13.8399 72.8274 14.3826C72.5196 14.4844 71.4305 15.5699 70.4125 16.791C67.8318 19.8779 65.9377 21.1669 63.8069 21.3026C61.9601 21.4382 61.4866 21.1669 57.5564 17.7069C56.4673 16.7571 54.9994 15.6377 54.2891 15.2646C52.7975 14.4505 50.0511 14.1452 48.5832 14.5862Z" fill="white"/>
<path d="M1.23115 29.3758C0.5919 30.0203 0 31.5807 0 32.6323C0 35.4816 5.44548 41.4518 9.3757 42.9104C10.962 43.4871 13.5427 43.5888 14.2293 43.08C15.271 42.2659 15.7446 39.213 15.0106 37.7204C14.4897 36.635 13.59 36.0922 12.0274 35.8548C10.228 35.6173 8.04985 34.0569 6.01371 31.6146C5.09034 30.4952 4.09595 29.4097 3.83551 29.2062C3.12523 28.6635 1.84673 28.7313 1.23115 29.3758Z" fill="white"/>
<path d="M23.6996 29.7488C22.4448 31.5467 22.4448 33.548 23.6759 35.3119C24.1731 36.0243 24.5756 36.2956 25.1912 36.2956C26.375 36.2956 28.0323 37.2794 30.0921 39.179C34.0223 42.8085 35.4903 43.5548 38.5681 43.3513C41.2672 43.1477 42.0485 42.7068 45.813 39.3486C49.0329 36.4313 50.2878 35.9225 52.0871 36.7705C52.7737 37.1098 54.36 38.297 55.5912 39.4164C59.2373 42.7407 60.1133 43.2156 62.9071 43.3513C64.8959 43.487 65.6298 43.3513 67.0504 42.7407C69.8915 41.5195 72.851 38.8058 75.0055 35.5155C75.8342 34.1925 75.9999 33.7176 75.9999 32.5304C75.9999 31.411 75.8579 30.9361 75.1949 29.9863C74.5557 29.0704 74.2005 28.833 73.4429 28.833C72.4722 28.833 72.2118 29.0704 69.56 32.1912C67.808 34.2943 65.6535 35.6511 63.8541 35.8547C62.1968 36.0243 61.7233 35.7529 57.6273 32.1233C54.6678 29.5453 53.4603 29.0026 50.5482 29.0026C47.8965 29.0365 46.6417 29.5792 44.132 31.7841C40.3202 35.1423 39.4915 35.719 38.4024 35.8886C37.0055 36.0582 36.0822 35.5494 33.1937 32.8696C30.2579 30.122 28.5058 29.1383 26.2329 28.9347C24.4572 28.7312 24.4099 28.7651 23.6996 29.7488Z" fill="white"/>
<path d="M0.852365 44.4029C-0.0236479 45.6919 -0.18938 47.6254 0.426196 49.0501C1.1128 50.5766 4.54582 54.4097 6.48726 55.7665C8.83118 57.4287 11.033 58.1071 13.377 57.9036C15.7446 57.7 17.0704 56.9538 20.314 54.0365C25.0256 49.7964 25.8306 49.7964 30.7788 54.2401C32.2941 55.5969 34.1408 56.9538 34.9932 57.3269C38.0947 58.7177 41.0306 57.9714 44.5346 54.9185C48.157 51.7299 48.962 51.1872 50.501 50.8819C51.7084 50.6444 52.0873 50.373 52.6318 49.525C53.4131 48.2699 53.4841 46.4721 52.7975 44.8778C52.2293 43.521 51.6137 43.2835 49.3645 43.487C47.3757 43.6906 45.529 44.81 42.1433 47.9646C39.4916 50.407 38.3788 50.8479 36.6978 50.0678C36.0112 49.7285 34.4249 48.5413 33.1938 47.4219C29.6424 44.1655 28.6954 43.6566 25.9253 43.487C22.9894 43.3174 21.5215 43.928 18.3726 46.7096C14.7265 49.966 14.0399 50.373 12.3826 50.3391C10.4411 50.3052 8.16825 48.7109 5.58757 45.658C3.88289 43.5888 3.64613 43.4192 2.62807 43.4192C1.7047 43.4192 1.39691 43.5888 0.852365 44.4029Z" fill="white"/>
</svg>
