<svg width="198" height="177" viewBox="0 0 198 177" fill="none" xmlns="http://www.w3.org/2000/svg">
<path d="M175.484 77.9561C173.112 65.0959 161.975 55.3125 148.5 55.3125C144.272 55.3125 140.284 56.3496 136.709 58.0781C130.728 49.7467 121.034 44.25 110 44.25C91.7812 44.25 77 59.1152 77 77.4375C77 77.6103 77.0687 77.8178 77.0687 77.9906C64.4875 80.5488 55 91.6805 55 105.094C55 120.374 67.3062 132.75 82.5 132.75H170.5C185.694 132.75 198 120.374 198 105.094C198 91.5422 188.306 80.3068 175.484 77.9561ZM42.6594 89.8482C29.8031 76.9189 29.8031 55.8656 42.6594 42.9018C54.5531 30.9404 73.2875 30.1799 86.2125 40.3436C93.0875 35.884 101.2 33.1875 110 33.1875C66 27.034 110.447 33.2566 110.687 33.2566L113.747 24.0264C114.916 20.5002 111.581 17.1814 108.075 18.3568L82.1906 27.034L69.9875 2.48906C68.3375 -0.829687 63.6281 -0.829687 61.9781 2.48906L49.775 27.034L23.8906 18.3568C20.3844 17.1814 17.0844 20.5348 18.2531 24.0609L26.8812 50.0924L2.475 62.3648C-0.825 64.0242 -0.825 68.7603 2.475 70.4197L26.8812 82.6922L18.2531 108.724C17.0844 112.25 20.4187 115.569 23.925 114.428L44.275 107.617C44.2062 106.788 44.0344 105.993 44.0344 105.128C44.0344 100.807 44.825 96.6586 46.1656 92.7176C44.9281 91.7842 43.725 90.9199 42.6594 89.8482ZM66.6531 69.7975C68.1312 61.3277 72.0844 53.7568 77.6188 47.6725C74.25 45.5291 70.2625 44.25 66 44.25C53.8656 44.25 44 54.1717 44 66.375C44 72.8396 46.8187 78.6129 51.2531 82.6576C55.1375 77.1609 60.3969 72.6668 66.6531 69.7975ZM180.297 144.538C177.684 143.052 174.316 143.916 172.803 146.613L160.222 168.738C158.709 171.4 159.638 174.753 162.284 176.274C163.144 176.758 164.072 177 165 177C166.891 177 168.747 175.997 169.778 174.2L182.359 152.075C183.838 149.413 182.944 146.06 180.297 144.538ZM147.297 144.538C144.684 143.052 141.316 143.916 139.803 146.613L127.222 168.738C125.709 171.4 126.637 174.753 129.284 176.274C130.144 176.758 131.072 177 132 177C133.891 177 135.747 175.997 136.778 174.2L149.359 152.075C150.838 149.413 149.944 146.06 147.297 144.538ZM114.297 144.538C111.684 143.052 108.316 143.916 106.803 146.613L94.2219 168.738C92.7094 171.4 93.6375 174.753 96.2844 176.274C97.1437 176.758 98.0719 177 99 177C100.891 177 102.747 175.997 103.778 174.2L116.359 152.075C117.838 149.413 116.944 146.06 114.297 144.538ZM81.2969 144.538C78.6844 143.052 75.3156 143.916 73.8031 146.613L61.2219 168.738C59.7094 171.4 60.6375 174.753 63.2844 176.274C64.1437 176.758 65.0719 177 66 177C67.8906 177 69.7469 175.997 70.7781 174.2L83.3594 152.075C84.8375 149.413 83.9437 146.06 81.2969 144.538Z" fill="white"/>
</svg>
