<svg width="68" height="67" viewBox="0 0 68 67" fill="none" xmlns="http://www.w3.org/2000/svg">
<path d="M20.8108 33.4981H2.12491C0.956209 33.4981 0 34.575 0 35.8912V40.6775C0 41.9937 0.956209 43.0706 2.12491 43.0706H21.01C23.1217 43.0706 25.1005 44.7009 25.4458 47.0492C25.884 50.0406 23.8388 52.6431 21.2491 52.6431C19.3765 52.6431 17.7828 51.2671 17.2118 49.3675C16.9329 48.4253 16.0696 47.8569 15.1931 47.8569H10.837C9.53552 47.8569 8.48635 49.1731 8.7254 50.609C9.86754 57.205 15.047 62.2157 21.2358 62.2157C28.8191 62.2157 34.8751 54.7222 33.879 45.9723C33.0689 38.7331 27.2785 33.4981 20.8108 33.4981ZM2.12491 28.7119H46.748C54.6765 28.7119 60.9317 20.5154 59.2052 11.257C58.1959 5.84251 54.3047 1.46009 49.4971 0.323358C42.1396 -1.41166 35.5391 4.04767 34.2376 11.6159C33.9852 13.0518 35.0477 14.3531 36.3359 14.3531H40.692C41.5818 14.3531 42.4318 13.7847 42.7107 12.8424C43.2817 10.9429 44.8754 9.56682 46.748 9.56682C49.3244 9.56682 51.3829 12.1693 50.9447 15.1608C50.5994 17.509 48.6338 19.1393 46.5089 19.1393H2.12491C0.956209 19.1393 0 20.2162 0 21.5325V26.3187C0 27.6349 0.956209 28.7119 2.12491 28.7119ZM53.1227 33.4981H32.365C34.9282 35.981 36.7742 39.3014 37.6507 43.0706H53.1227C56.6421 43.0706 59.4974 46.2864 59.4974 50.25C59.4974 54.2136 56.6421 57.4294 53.1227 57.4294C50.7455 57.4294 48.7002 55.9487 47.5979 53.7799C47.2128 53.032 46.4425 52.6431 45.6722 52.6431H41.1834C39.7358 52.6431 38.66 54.2585 39.1514 55.7991C41.5154 63.3674 48.5143 68.4827 56.3366 66.613C61.8083 65.3118 66.3104 60.3909 67.5854 54.2435C69.8563 43.295 62.4856 33.4981 53.1227 33.4981Z" fill="white"/>
</svg>
